<?xml version="1.0" standalone="no"?>
<!DOCTYPE svg PUBLIC "-//W3C//DTD SVG 20010904//EN"
 "http://www.w3.org/TR/2001/REC-SVG-20010904/DTD/svg10.dtd">
<svg version="1.0" xmlns="http://www.w3.org/2000/svg"
 width="260.000000pt" height="260.000000pt" viewBox="0 0 260.000000 260.000000"
 preserveAspectRatio="xMidYMid meet">
<metadata>
Created by potrace 1.14, written by Peter Selinger 2001-2017
</metadata>
<g transform="translate(0.000000,260.000000) scale(0.100000,-0.100000)"
fill="#000000" stroke="none">
<path d="M312 2320 c-17 -10 -36 -29 -43 -42 -11 -18 -13 -220 -14 -958 -1
-514 3 -947 8 -961 4 -15 19 -37 33 -50 l26 -24 956 -3 956 -2 32 22 c18 13
36 32 40 43 3 11 7 445 8 964 1 938 1 945 -19 975 -11 17 -31 36 -44 43 -18 8
-263 11 -966 12 -906 0 -943 -1 -973 -19z"/>
</g>
</svg>
